<svg xmlns="http://www.w3.org/2000/svg" xml:space="preserve" fill-rule="evenodd" stroke-linejoin="round" stroke-miterlimit="2" clip-rule="evenodd" viewBox="0 0 64 64"><g transform="translate(-1216 -192)"><path fill="none" d="M0 0h1280v800H0z"/><path fill-rule="nonzero" d="M1247.623 224.222a12.213 12.213 0 0 1-12.237-12.238 12.213 12.213 0 0 1 12.237-12.237 12.213 12.213 0 0 1 12.238 12.237 12.213 12.213 0 0 1-12.238 12.238m0-20.71a8.44 8.44 0 0 0-8.471 8.472 8.44 8.44 0 0 0 8.47 8.473 8.44 8.44 0 0 0 8.473-8.473 8.44 8.44 0 0 0-8.472-8.472m-16.568 35.583v8.126c0 .933-3.765.933-3.765 0v-8.126c0-7.437 9.131-13.178 20.71-13.178s20.71 5.741 20.71 13.178v8.126c0 .933-3.766.933-3.766 0v-8.126c0-5.083-7.72-9.413-16.944-9.413s-16.945 4.33-16.945 9.413"/></g></svg>